<svg xmlns="http://www.w3.org/2000/svg" width="12" height="12" viewBox="0 0 12 12">
    <metadata><?xpacket begin="﻿" id="W5M0MpCehiHzreSzNTczkc9d"?>
        <x:xmpmeta xmlns:x="adobe:ns:meta/" x:xmptk="Adobe XMP Core 5.6-c138 79.159824, 2016/09/14-01:09:01        ">
            <rdf:RDF xmlns:rdf="http://www.w3.org/1999/02/22-rdf-syntax-ns#">
                <rdf:Description rdf:about=""/>
            </rdf:RDF>
        </x:xmpmeta>





















        <?xpacket end="w"?></metadata>
    <defs>
        <style>
            .cls-1 {
            fill: #1baae1;
            fill-rule: evenodd;
            }
        </style>
    </defs>
    <path id="gamburger" class="cls-1" d="M446,19h10a1,1,0,0,1,1,1h0a1,1,0,0,1-1,1H446a1,1,0,0,1-1-1h0A1,1,0,0,1,446,19Zm0,5h10a1,1,0,0,1,1,1h0a1,1,0,0,1-1,1H446a1,1,0,0,1-1-1h0A1,1,0,0,1,446,24Zm0,5h10a1,1,0,0,1,0,2H446A1,1,0,0,1,446,29Z" transform="translate(-445 -19)"/>
</svg>
