<svg
        xmlns="http://www.w3.org/2000/svg"
        xmlns:xlink="http://www.w3.org/1999/xlink"
        width="32px" height="33px">
    <path fill-rule="evenodd"  fill="rgb(255, 255, 255)"
          d="M17.907,16.243 L31.503,29.890 C31.994,30.383 31.994,31.181 31.503,31.674 C31.258,31.920 30.936,32.044 30.614,32.044 C30.292,32.044 29.972,31.920 29.726,31.674 L16.130,18.027 L2.535,31.674 C2.290,31.920 1.968,32.044 1.646,32.044 C1.326,32.044 1.004,31.920 0.757,31.674 C0.267,31.181 0.267,30.383 0.757,29.890 L14.353,16.243 L0.757,2.596 C0.267,2.104 0.267,1.305 0.757,0.813 C1.249,0.319 2.045,0.319 2.535,0.813 L16.130,14.459 L29.726,0.813 C30.217,0.319 31.013,0.319 31.503,0.813 C31.994,1.305 31.994,2.104 31.503,2.596 L17.907,16.243 Z"/>
</svg>