<svg
        xmlns="http://www.w3.org/2000/svg"
        xmlns:xlink="http://www.w3.org/1999/xlink"
        width="30px" height="30px">
    <path fill-rule="evenodd"  fill="rgb(123, 123, 123)"
          d="M23.971,25.902 C24.060,25.902 24.179,25.902 24.268,25.932 C24.535,25.961 24.773,26.050 24.981,26.139 C25.129,26.199 25.278,26.258 25.427,26.288 C25.783,26.347 26.199,26.288 26.644,26.229 C27.239,26.139 27.892,26.050 28.575,26.288 L28.159,27.387 C27.773,27.239 27.328,27.328 26.823,27.387 C26.318,27.446 25.724,27.536 25.159,27.417 C24.922,27.357 24.743,27.268 24.535,27.209 C24.357,27.149 24.179,27.090 24.030,27.060 C23.436,26.971 22.783,27.328 22.129,27.654 C21.476,28.011 20.793,28.308 20.080,28.308 C19.990,28.308 19.872,28.308 19.753,28.278 C18.268,28.813 16.663,29.110 15.000,29.110 C7.217,29.110 0.890,22.783 0.890,15.000 C0.890,7.217 7.217,0.890 15.000,0.890 C22.783,0.890 29.110,7.217 29.110,15.000 C29.110,19.367 27.120,23.288 23.971,25.902 ZM6.950,11.465 C6.920,11.465 6.890,11.465 6.861,11.465 C4.960,11.495 3.415,13.099 3.415,15.000 C3.415,16.931 4.930,18.505 6.861,18.565 C6.890,18.565 6.920,18.565 6.950,18.565 C8.910,18.565 10.514,16.990 10.514,15.030 C10.514,13.069 8.910,11.465 6.950,11.465 ZM18.535,6.890 C18.505,4.960 16.901,3.415 15.000,3.415 C13.099,3.415 11.495,4.960 11.435,6.861 C11.435,6.890 11.435,6.920 11.435,6.950 C11.435,8.910 13.039,10.514 15.000,10.514 C16.960,10.514 18.565,8.910 18.535,6.980 C18.535,6.950 18.535,6.920 18.535,6.890 ZM15.000,11.435 C13.039,11.435 11.435,13.039 11.435,15.000 C11.435,16.960 13.039,18.565 15.000,18.565 C16.960,18.565 18.565,16.960 18.565,15.000 C18.565,13.039 16.960,11.435 15.000,11.435 ZM15.030,19.456 C13.069,19.456 11.465,21.060 11.465,23.020 C11.465,23.050 11.465,23.080 11.465,23.139 C11.524,25.100 13.069,26.585 15.000,26.585 C16.931,26.585 18.475,25.100 18.565,23.139 C18.565,23.109 18.565,23.080 18.594,23.020 C18.594,21.060 16.990,19.456 15.030,19.456 ZM23.139,11.406 C23.109,11.406 23.080,11.406 23.050,11.406 C21.090,11.406 19.485,13.010 19.485,14.970 C19.485,16.931 21.090,18.535 23.050,18.535 C23.080,18.535 23.109,18.535 23.139,18.535 C25.040,18.505 26.585,16.901 26.585,15.000 C26.585,13.099 25.040,11.495 23.139,11.406 ZM22.991,15.861 C22.961,16.010 22.961,16.158 22.931,16.307 C22.931,16.396 22.931,16.456 22.902,16.545 C22.872,16.693 22.842,16.812 22.812,16.960 C22.783,17.020 22.783,17.109 22.753,17.198 C22.723,17.258 22.723,17.317 22.694,17.347 C21.565,17.198 20.674,16.188 20.674,15.000 C20.674,13.812 21.535,12.832 22.694,12.653 C22.723,12.713 22.753,12.742 22.753,12.802 C22.783,12.891 22.783,12.950 22.812,13.039 C22.842,13.188 22.872,13.307 22.902,13.455 C22.902,13.544 22.931,13.604 22.931,13.693 C22.961,13.841 22.961,13.990 22.991,14.138 C22.991,14.198 23.020,14.287 23.020,14.346 C23.050,14.554 23.050,14.792 23.050,15.000 C23.050,15.208 23.050,15.446 23.020,15.653 C23.020,15.713 22.991,15.802 22.991,15.861 ZM16.960,22.812 C16.812,22.842 16.663,22.872 16.515,22.902 C16.456,22.902 16.366,22.931 16.307,22.931 C16.129,22.961 15.980,22.961 15.802,22.991 C15.743,23.020 15.713,23.020 15.654,23.020 C15.208,23.050 14.762,23.050 14.317,23.020 C14.257,22.991 14.228,22.991 14.168,22.991 C13.990,22.991 13.841,22.961 13.663,22.931 C13.604,22.931 13.515,22.902 13.455,22.902 C13.307,22.872 13.158,22.842 13.010,22.812 C12.950,22.783 12.861,22.783 12.802,22.753 C12.742,22.723 12.713,22.723 12.653,22.723 C12.802,21.565 13.812,20.674 15.000,20.674 C16.188,20.674 17.168,21.535 17.347,22.694 C17.287,22.723 17.258,22.753 17.198,22.753 C17.109,22.783 17.050,22.783 16.960,22.812 ZM15.000,9.326 C13.812,9.326 12.831,8.465 12.653,7.306 C12.713,7.277 12.742,7.247 12.802,7.247 C12.891,7.217 12.950,7.217 13.039,7.187 C13.188,7.158 13.336,7.128 13.485,7.098 C13.544,7.098 13.634,7.069 13.693,7.069 C13.871,7.039 14.020,7.039 14.198,7.009 C14.257,6.980 14.287,6.980 14.346,6.980 C14.792,6.950 15.238,6.950 15.683,6.980 C15.743,7.009 15.772,7.009 15.832,7.009 C16.010,7.009 16.158,7.039 16.337,7.069 C16.396,7.069 16.485,7.098 16.545,7.098 C16.693,7.128 16.842,7.158 16.990,7.187 C17.050,7.217 17.139,7.217 17.198,7.247 C17.258,7.277 17.287,7.306 17.347,7.306 C17.168,8.435 16.188,9.326 15.000,9.326 ZM7.277,17.347 C7.247,17.287 7.217,17.258 7.217,17.198 C7.187,17.139 7.187,17.050 7.158,16.960 C7.128,16.812 7.098,16.693 7.069,16.545 C7.069,16.456 7.039,16.396 7.039,16.307 C7.009,16.158 7.009,16.010 6.980,15.861 C6.980,15.802 6.950,15.713 6.950,15.653 C6.920,15.446 6.920,15.208 6.920,15.000 C6.920,14.792 6.920,14.554 6.950,14.346 C6.950,14.287 6.980,14.198 6.980,14.138 C7.009,13.990 7.009,13.841 7.039,13.693 C7.069,13.634 7.069,13.544 7.098,13.455 C7.128,13.307 7.158,13.188 7.187,13.039 C7.217,12.980 7.217,12.891 7.247,12.802 C7.277,12.742 7.306,12.713 7.306,12.653 C8.465,12.832 9.326,13.812 9.297,15.000 C9.297,16.188 8.435,17.168 7.277,17.347 Z"/>
</svg>