<svg
        xmlns="http://www.w3.org/2000/svg"
        xmlns:xlink="http://www.w3.org/1999/xlink"
        width="25px" height="27px">
    <path fill-rule="evenodd"  fill="rgb(123, 123, 123)"
          d="M19.964,2.173 L19.964,3.541 L22.733,3.541 C23.866,3.544 24.782,4.501 24.779,5.678 L24.779,5.678 L24.779,24.827 C24.776,26.000 23.862,26.950 22.733,26.953 L2.253,26.953 C1.124,26.950 0.210,26.000 0.208,24.827 L0.208,5.678 C0.210,4.505 1.124,3.554 2.253,3.552 L4.955,3.552 L4.955,2.173 C4.955,0.999 5.870,0.047 7.000,0.047 C8.130,0.047 9.046,0.999 9.046,2.173 L9.046,3.541 L15.872,3.541 L15.872,2.173 C15.872,0.998 16.789,0.045 17.920,0.045 C19.051,0.045 19.968,0.998 19.968,2.173 L19.964,2.173 ZM4.299,10.408 L4.299,22.701 L20.688,22.701 L20.688,10.408 L4.299,10.408 ZM9.134,18.937 L10.137,19.985 C10.693,20.561 11.592,20.561 12.148,19.985 L13.156,18.968 L16.768,15.235 C17.296,14.629 17.253,13.693 16.670,13.144 C16.129,12.634 15.305,12.632 14.761,13.139 L11.155,16.867 L10.225,15.896 C9.669,15.320 8.770,15.320 8.214,15.896 L8.214,15.896 C7.659,16.473 7.659,17.408 8.214,17.986 L9.134,18.937 Z"/>
</svg>