<svg
        xmlns="http://www.w3.org/2000/svg"
        xmlns:xlink="http://www.w3.org/1999/xlink"
        width="26px" height="21px">
    <path fill-rule="evenodd"  fill="rgb(123, 123, 123)"
          d="M23.063,9.581 L23.063,9.581 C24.395,10.037 25.350,11.271 25.350,12.716 C25.350,14.163 24.394,15.395 23.063,15.852 L23.063,19.366 C23.063,19.978 22.551,20.475 21.919,20.475 C21.288,20.475 20.776,19.978 20.776,19.366 L20.776,15.852 C19.443,15.394 18.489,14.161 18.489,12.716 C18.489,11.269 19.445,10.037 20.776,9.581 L20.776,1.633 C20.776,1.020 21.288,0.524 21.919,0.524 C22.551,0.524 23.063,1.020 23.063,1.633 L23.063,9.581 ZM16.430,5.179 C16.430,6.602 15.497,7.851 14.143,8.315 L14.143,19.366 C14.143,19.978 13.632,20.475 13.000,20.475 C12.368,20.475 11.856,19.978 11.856,19.366 L11.856,8.315 C10.502,7.851 9.569,6.601 9.569,5.179 C9.569,3.756 10.502,2.508 11.856,2.044 L11.856,1.633 C11.856,1.020 12.368,0.524 13.000,0.524 C13.632,0.524 14.143,1.020 14.143,1.633 L14.143,2.044 C15.497,2.508 16.430,3.757 16.430,5.179 ZM5.224,1.633 C5.224,1.020 4.712,0.524 4.080,0.524 C3.449,0.524 2.937,1.020 2.937,1.633 L2.937,12.684 C1.606,13.141 0.650,14.372 0.650,15.819 C0.650,17.264 1.604,18.497 2.937,18.955 L2.937,19.366 C2.937,19.978 3.449,20.475 4.080,20.475 C4.712,20.475 5.224,19.978 5.224,19.366 L5.224,18.955 C6.555,18.497 7.511,17.267 7.511,15.819 C7.511,14.375 6.556,13.141 5.224,12.684 L5.224,1.633 Z"/>
</svg>