<svg
        xmlns="http://www.w3.org/2000/svg"
        xmlns:xlink="http://www.w3.org/1999/xlink"
        width="28px" height="22px">
    <path fill-rule="evenodd"  fill="rgb(123, 123, 123)"
          d="M26.016,19.157 L20.885,16.167 L20.885,17.262 C20.885,19.571 18.998,21.495 16.668,21.495 L4.223,21.495 C1.923,21.495 0.006,19.571 0.006,17.232 L0.006,4.740 C0.006,2.401 1.923,0.477 4.223,0.506 L16.697,0.506 C18.998,0.506 20.914,2.401 20.914,4.740 L20.914,7.759 L26.046,4.769 C26.930,4.266 28.022,4.888 27.992,5.894 L27.992,18.032 C27.992,19.038 26.901,19.660 26.016,19.157 ZM11.655,6.220 C7.113,5.746 4.017,7.848 2.778,10.986 C4.017,14.124 7.113,16.226 11.655,15.752 C15.488,15.367 17.464,13.384 18.142,10.986 C17.435,8.618 15.488,6.605 11.655,6.220 ZM10.475,14.213 C8.700,14.213 7.261,12.768 7.261,10.986 C7.261,9.204 8.700,7.759 10.475,7.759 C12.250,7.759 13.689,9.204 13.689,10.986 C13.689,12.768 12.250,14.213 10.475,14.213 Z"/>
</svg>