<svg
        xmlns="http://www.w3.org/2000/svg"
        xmlns:xlink="http://www.w3.org/1999/xlink"
        width="23px" height="26px">
    <path fill-rule="evenodd"  fill="rgb(123, 123, 123)"
          d="M11.500,15.080 L10.458,16.120 L7.333,18.200 L2.646,20.800 L0.042,26.000 L22.958,26.000 L20.354,20.800 L15.667,18.200 L12.542,16.120 L11.500,15.080 ZM4.687,16.307 L0.000,18.907 L1.083,20.592 L5.812,18.096 L4.687,16.307 ZM10.458,14.768 L8.375,14.768 C8.375,15.600 8.583,16.640 6.917,17.472 L1.083,20.592 C0.042,22.672 0.042,26.000 0.042,26.000 L2.125,26.000 C2.333,23.296 2.542,22.672 2.750,22.048 L6.708,19.968 C8.896,18.720 10.458,17.680 10.458,16.016 L10.458,14.768 ZM18.792,21.840 C19.417,21.840 19.833,22.256 19.833,22.880 C19.833,23.504 19.417,23.920 18.792,23.920 C18.167,23.920 17.750,23.504 17.750,22.880 C17.750,22.256 18.167,21.840 18.792,21.840 ZM14.625,14.144 C12.542,13.624 10.458,13.624 8.896,14.144 C8.896,14.664 9.937,15.184 11.500,15.184 C13.062,15.184 14.625,14.664 14.625,14.144 ZM14.625,14.768 L12.542,14.768 L12.542,16.016 C12.542,17.930 13.979,18.699 16.292,19.968 L20.458,22.048 C20.667,22.672 20.667,23.296 20.875,26.000 L22.958,26.000 C22.958,26.000 22.958,22.672 21.917,20.592 L16.083,17.472 C14.417,16.640 14.625,15.600 14.625,14.768 ZM15.667,8.319 C15.667,11.960 14.625,14.560 11.500,14.560 C8.896,14.560 7.333,11.439 7.333,8.319 L15.667,8.319 ZM18.312,16.307 L17.208,18.096 L21.917,20.592 L23.000,18.907 L18.312,16.307 ZM11.500,1.039 C7.333,1.039 5.250,4.367 5.250,7.695 C5.250,11.856 7.333,16.640 11.500,16.640 C16.187,16.640 17.750,12.168 17.750,7.695 C17.750,3.743 15.354,1.039 11.500,1.039 ZM11.542,-0.001 C10.229,-0.001 9.125,0.311 8.208,0.852 C6.104,2.037 4.667,4.284 4.667,6.842 L4.604,11.377 C5.167,11.689 5.687,11.835 6.333,11.960 L6.917,11.960 L6.396,3.889 L16.604,5.137 L16.292,11.918 L16.979,11.918 C17.542,11.793 17.917,11.668 18.396,11.377 L18.396,6.842 C18.396,4.846 17.521,3.015 16.125,1.767 C14.646,0.290 12.792,-0.001 11.542,-0.001 ZM11.521,11.627 C12.271,11.627 12.875,11.627 12.875,11.627 C12.875,11.627 12.271,11.627 11.521,11.627 C10.771,11.627 10.167,11.627 10.167,11.627 C10.167,11.627 10.771,11.627 11.521,11.627 Z"/>
</svg>