<svg
        xmlns="http://www.w3.org/2000/svg"
        xmlns:xlink="http://www.w3.org/1999/xlink"
        width="26px" height="23px">
    <path fill-rule="evenodd"  fill="rgb(123, 123, 123)"
          d="M25.485,21.742 C25.312,21.850 25.115,21.905 24.917,21.905 C24.751,21.905 24.585,21.866 24.432,21.790 L20.099,19.599 C19.732,19.413 19.500,19.034 19.500,18.619 L19.500,13.143 C19.500,12.728 19.732,12.349 20.098,12.163 L24.431,9.972 C24.767,9.802 25.166,9.820 25.485,10.020 C25.805,10.221 26.000,10.572 26.000,10.952 L26.000,20.809 C26.000,21.189 25.805,21.541 25.485,21.742 ZM17.333,21.905 L15.167,21.905 C15.167,22.509 14.682,23.000 14.083,23.000 L11.917,23.000 L9.750,23.000 L7.583,23.000 C6.985,23.000 6.500,22.509 6.500,21.905 L1.083,21.905 C0.485,21.905 -0.000,21.414 -0.000,20.809 L-0.000,10.952 C-0.000,10.348 0.485,9.857 1.083,9.857 L17.333,9.857 C17.932,9.857 18.417,10.348 18.417,10.952 L18.417,20.809 C18.417,21.414 17.932,21.905 17.333,21.905 ZM14.083,8.762 C11.693,8.762 9.750,6.797 9.750,4.381 C9.750,1.965 11.693,-0.000 14.083,-0.000 C16.473,-0.000 18.417,1.965 18.417,4.381 C18.417,6.797 16.473,8.762 14.083,8.762 ZM4.333,8.762 C1.943,8.762 -0.000,6.797 -0.000,4.381 C-0.000,1.965 1.943,-0.000 4.333,-0.000 C6.723,-0.000 8.667,1.965 8.667,4.381 C8.667,6.797 6.723,8.762 4.333,8.762 Z"/>
</svg>