<svg
        xmlns="http://www.w3.org/2000/svg"
        xmlns:xlink="http://www.w3.org/1999/xlink"
        width="25px" height="29px">
    <path fill-rule="evenodd"  fill="rgb(123, 123, 123)"
          d="M4.865,-0.000 C4.266,-0.000 3.778,0.500 3.778,1.113 L3.778,13.260 C3.238,13.119 2.701,12.988 2.164,12.821 C1.278,12.548 0.342,13.062 0.072,13.969 C-0.195,14.875 0.309,15.835 1.192,16.111 C4.945,17.269 8.725,17.849 12.497,17.849 C16.275,17.849 20.050,17.271 23.797,16.111 C24.688,15.838 25.195,14.875 24.928,13.969 C24.658,13.062 23.719,12.545 22.836,12.821 C22.296,12.988 21.753,13.119 21.216,13.260 L21.216,1.113 C21.216,0.500 20.734,-0.000 20.135,-0.000 C19.536,-0.000 19.048,0.500 19.048,1.113 L19.048,13.749 C14.690,14.599 10.310,14.599 5.952,13.749 L5.952,1.113 C5.952,0.500 5.464,-0.000 4.865,-0.000 L4.865,-0.000 ZM6.512,2.289 L6.512,10.330 C10.502,11.154 14.495,11.154 18.499,10.330 L18.499,2.289 C14.507,3.103 10.513,3.103 6.512,2.289 ZM6.359,17.905 L10.768,22.421 C10.712,22.593 10.680,22.787 10.680,22.983 C10.680,23.179 10.714,23.361 10.768,23.545 L4.772,27.538 C4.449,27.869 4.449,28.421 4.772,28.753 C4.941,28.925 5.154,29.000 5.365,29.000 C5.578,29.000 5.789,28.922 5.958,28.753 L11.954,24.760 C12.131,24.817 12.314,24.850 12.503,24.850 C12.691,24.850 12.881,24.817 13.046,24.760 L19.048,28.753 C19.216,28.925 19.427,29.000 19.641,29.000 C19.851,29.000 20.071,28.922 20.228,28.753 C20.563,28.421 20.563,27.869 20.228,27.538 L14.232,23.545 C14.291,23.361 14.331,23.179 14.331,22.983 C14.331,22.787 14.289,22.593 14.232,22.421 L18.641,17.905 C17.736,18.066 16.842,18.182 15.940,18.248 L13.046,21.212 C12.878,21.154 12.691,21.105 12.503,21.105 C12.315,21.105 12.131,21.154 11.954,21.212 L9.066,18.248 C8.160,18.182 7.264,18.066 6.359,17.905 L6.359,17.905 Z"/>
</svg>