<svg
        xmlns="http://www.w3.org/2000/svg"
        xmlns:xlink="http://www.w3.org/1999/xlink"
        width="24px" height="25px">
    <path fill-rule="evenodd"  fill="rgb(123, 123, 123)"
          d="M5.120,22.390 L5.260,23.560 C5.260,23.863 5.501,24.109 5.800,24.109 L5.800,24.109 L7.399,24.109 C7.697,24.109 7.939,23.863 7.939,23.560 L7.939,23.560 L7.700,22.390 L16.300,22.390 L16.058,23.560 C16.058,23.863 16.300,24.109 16.598,24.109 L16.598,24.109 L18.198,24.109 C18.496,24.109 18.737,23.863 18.737,23.560 L18.737,23.560 L18.880,22.390 L20.600,22.390 C21.928,22.388 23.180,21.745 23.178,20.394 C23.178,20.391 23.178,20.389 23.178,20.387 L23.178,7.809 C23.178,6.458 21.928,6.049 20.600,6.049 L15.440,6.049 C15.198,5.635 14.945,4.579 14.581,4.273 L16.591,2.227 C16.885,1.920 16.878,1.428 16.576,1.130 C16.283,0.839 15.818,0.836 15.520,1.121 L13.172,3.510 C12.415,3.279 11.608,3.279 10.851,3.510 L8.503,1.121 C8.203,0.813 7.713,0.810 7.410,1.116 C7.106,1.420 7.104,1.919 7.404,2.227 L9.423,4.282 C9.054,4.588 8.805,5.634 8.560,6.049 L3.400,6.049 C2.075,6.049 0.822,6.461 0.816,7.809 L0.816,20.387 C0.811,21.738 1.212,22.384 2.540,22.390 C2.543,22.390 3.397,22.390 3.400,22.390 L5.120,22.390 ZM4.260,10.349 C4.260,9.939 4.358,8.631 4.762,8.631 L4.762,8.631 L16.171,8.631 C16.574,8.631 17.160,9.079 17.160,9.489 L17.160,9.489 L17.160,18.950 C17.160,19.359 16.703,19.809 16.300,19.809 L16.300,19.809 L4.260,19.809 C3.857,19.809 4.260,18.500 4.260,18.089 L4.260,18.089 L4.260,10.349 Z"/>
</svg>