<svg
        xmlns="http://www.w3.org/2000/svg"
        xmlns:xlink="http://www.w3.org/1999/xlink"
        width="34px" height="20px">
    <path fill-rule="evenodd"  fill="rgb(123, 123, 123)"
          d="M1.215,8.442 L7.909,10.825 L7.909,20.013 L26.103,20.013 L26.103,10.654 L28.850,9.804 L28.850,14.908 L32.283,14.908 L32.283,8.613 L32.798,8.442 C33.484,8.272 33.999,7.592 33.999,6.911 C33.999,6.230 33.484,5.550 32.798,5.380 L17.521,0.105 C17.178,-0.065 16.835,-0.065 16.320,0.105 L1.215,5.210 C0.529,5.380 0.014,6.060 0.014,6.741 C0.014,7.422 0.529,8.102 1.215,8.442 ZM22.671,11.845 L22.671,16.610 L11.342,16.610 L11.342,11.845 L17.006,13.887 C17.178,13.717 22.499,12.016 22.671,11.845 Z"/>
</svg>