<svg
        xmlns="http://www.w3.org/2000/svg"
        xmlns:xlink="http://www.w3.org/1999/xlink"
        width="22px" height="23px">
    <path fill-rule="evenodd"  fill="rgb(123, 123, 123)"
          d="M20.087,6.957 L20.087,5.671 C20.087,4.453 19.088,3.466 17.855,3.466 L17.536,3.466 L17.536,2.205 C17.536,0.987 16.537,-0.000 15.304,-0.000 L6.696,-0.000 C5.463,-0.000 4.464,0.987 4.464,2.205 L4.464,3.466 L4.145,3.466 C2.912,3.466 1.913,4.453 1.913,5.671 L1.913,6.957 C0.816,7.113 0.001,8.042 -0.000,9.137 L-0.000,20.795 C-0.000,22.013 0.999,23.000 2.232,23.000 L19.768,23.000 C21.001,23.000 22.000,22.013 22.000,20.795 L22.000,9.137 C21.999,8.042 21.184,7.113 20.087,6.957 ZM6.377,2.205 C6.377,2.031 6.520,1.890 6.696,1.890 L15.304,1.890 C15.480,1.890 15.623,2.031 15.623,2.205 L15.623,3.466 L6.377,3.466 L6.377,2.205 ZM14.000,15.000 L8.000,15.000 C7.472,15.000 7.014,14.070 7.014,13.548 C7.014,13.026 7.472,12.000 8.000,12.000 L14.000,12.000 C14.528,12.000 14.985,13.026 14.985,13.548 C14.985,14.070 14.528,15.000 14.000,15.000 ZM18.174,6.931 L3.826,6.931 L3.826,5.671 C3.826,5.497 3.969,5.356 4.145,5.356 L17.855,5.356 C18.031,5.356 18.174,5.497 18.174,5.671 L18.174,6.931 Z"/>
</svg>