<svg
        xmlns="http://www.w3.org/2000/svg"
        xmlns:xlink="http://www.w3.org/1999/xlink"
        width="21px" height="23px">
    <path fill-rule="evenodd"  fill="rgb(123, 123, 123)"
          d="M18.970,12.075 L18.970,5.281 L15.712,6.178 C13.453,6.800 11.197,7.431 8.932,8.020 C8.498,8.135 8.349,8.307 8.352,8.752 C8.373,12.150 8.373,15.549 8.352,18.949 C8.379,21.162 6.532,22.976 4.227,23.002 C2.515,23.021 0.965,22.035 0.316,20.514 C-0.330,19.031 0.029,17.319 1.222,16.192 C2.485,15.014 3.981,14.703 5.657,15.260 C5.868,15.331 6.072,15.426 6.364,15.545 C6.364,15.272 6.364,15.062 6.364,14.855 C6.364,11.415 6.364,7.976 6.364,4.538 C6.364,4.227 6.364,3.996 6.784,3.882 C11.404,2.625 16.014,1.343 20.633,0.071 C20.729,0.045 20.830,0.027 20.959,-0.001 C20.971,0.142 20.991,0.257 20.991,0.370 C20.991,5.449 21.007,10.528 20.991,15.605 C20.991,17.867 19.015,19.607 16.627,19.538 C14.327,19.445 12.540,17.580 12.637,15.372 C12.734,13.164 14.677,11.448 16.977,11.541 C17.444,11.560 17.905,11.654 18.339,11.819 C18.524,11.896 18.711,11.967 18.970,12.075 Z"/>
</svg>