<svg
        xmlns="http://www.w3.org/2000/svg"
        xmlns:xlink="http://www.w3.org/1999/xlink"
        width="29px" height="28px">
    <path fill-rule="evenodd"  fill="rgb(123, 123, 123)"
          d="M2.321,16.472 L4.424,16.840 C4.669,17.759 5.033,18.642 5.507,19.467 L4.282,21.212 C3.833,21.852 3.908,22.723 4.461,23.277 L5.712,24.538 C6.266,25.091 7.137,25.166 7.778,24.717 L9.523,23.487 C10.348,23.962 11.231,24.326 12.151,24.570 L12.519,26.672 C12.654,27.439 13.317,28.000 14.096,28.007 L15.873,28.007 C16.652,28.000 17.315,27.439 17.450,26.672 L17.818,24.570 C18.738,24.326 19.622,23.962 20.446,23.487 L22.191,24.712 C22.828,25.153 23.688,25.080 24.242,24.538 L25.498,23.282 C26.050,22.728 26.126,21.858 25.677,21.217 L24.452,19.472 C24.926,18.648 25.290,17.764 25.535,16.845 L27.637,16.477 C28.405,16.343 28.966,15.679 28.972,14.901 L28.972,13.103 C28.966,12.325 28.405,11.661 27.637,11.527 L25.535,11.159 C25.290,10.239 24.926,9.356 24.452,8.531 L25.677,6.787 C26.126,6.146 26.050,5.276 25.498,4.721 L24.242,3.466 C23.687,2.913 22.816,2.838 22.176,3.287 L20.430,4.511 C19.606,4.037 18.722,3.673 17.802,3.429 L17.434,1.327 C17.300,0.560 16.636,-0.002 15.857,-0.008 L14.091,-0.008 C13.312,-0.002 12.648,0.560 12.514,1.327 L12.146,3.429 C11.226,3.673 10.343,4.037 9.518,4.511 L7.773,3.287 C7.132,2.838 6.261,2.913 5.707,3.466 L4.450,4.721 C3.898,5.276 3.822,6.146 4.272,6.787 L5.496,8.531 C5.022,9.356 4.658,10.239 4.414,11.159 L2.311,11.527 C1.544,11.661 0.982,12.325 0.976,13.103 L0.976,14.880 C0.975,15.668 1.544,16.341 2.321,16.472 ZM14.979,9.162 C17.650,9.162 19.815,11.327 19.815,13.997 C19.815,16.667 17.650,18.831 14.979,18.831 C12.308,18.831 10.143,16.667 10.143,13.997 L10.143,13.997 C10.143,11.327 12.308,9.162 14.979,9.162 Z"/>
</svg>