<svg
        xmlns="http://www.w3.org/2000/svg"
        xmlns:xlink="http://www.w3.org/1999/xlink"
        width="8px" height="10px">
    <path fill-rule="evenodd"  opacity="0.8" fill="rgb(255, 255, 255)"
          d="M1.168,9.523 C1.587,9.903 2.267,9.903 2.686,9.524 C2.687,9.523 2.687,9.523 2.687,9.523 L6.889,5.714 C7.308,5.335 7.309,4.719 6.889,4.340 C6.889,4.340 6.889,4.339 6.889,4.339 L2.681,0.532 C2.290,0.128 1.611,0.088 1.165,0.442 C0.720,0.796 0.675,1.410 1.066,1.814 C1.098,1.846 1.132,1.877 1.168,1.905 L4.615,5.026 L1.168,8.148 C0.748,8.527 0.748,9.143 1.167,9.522 C1.167,9.523 1.168,9.523 1.168,9.523 L1.168,9.523 Z"/>
</svg>