<svg
        xmlns="http://www.w3.org/2000/svg"
        xmlns:xlink="http://www.w3.org/1999/xlink"
        width="20px" height="20px">
    <path fill-rule="evenodd"  fill="rgb(229, 57, 53)"
          d="M9.998,0.904 C4.971,0.904 0.895,4.978 0.895,10.001 C0.895,15.024 4.971,19.097 9.998,19.097 C15.025,19.097 19.100,15.025 19.100,10.001 C19.100,4.978 15.025,0.904 9.998,0.904 ZM9.998,4.432 C10.565,4.432 11.025,4.891 11.025,5.458 L10.763,11.581 C10.736,12.134 10.305,12.345 9.998,12.345 C9.653,12.345 9.263,12.163 9.233,11.581 L8.970,5.458 C8.971,4.891 9.431,4.432 9.998,4.432 ZM10.925,15.448 C10.683,15.692 10.344,15.832 9.998,15.832 C9.651,15.832 9.313,15.692 9.068,15.448 C8.824,15.205 8.685,14.866 8.685,14.519 C8.685,14.176 8.824,13.837 9.068,13.592 C9.313,13.350 9.651,13.207 9.998,13.207 C10.344,13.207 10.681,13.350 10.925,13.592 C11.172,13.837 11.311,14.176 11.311,14.519 C11.311,14.866 11.172,15.205 10.925,15.448 Z"/>
</svg>