<svg
        xmlns="http://www.w3.org/2000/svg"
        xmlns:xlink="http://www.w3.org/1999/xlink"
        width="30px" height="30px">
    <path fill-rule="evenodd"  fill="rgb(0, 86, 150)"
          d="M23.794,30.009 L23.794,20.261 C23.794,17.937 23.749,14.945 20.561,14.945 C17.324,14.945 16.830,17.477 16.830,20.093 L16.830,30.009 L10.617,30.009 L10.617,9.962 L16.580,9.962 L16.580,12.701 L16.665,12.701 C17.494,11.125 19.524,9.463 22.551,9.463 C28.845,9.463 30.009,13.615 30.009,19.013 L30.009,30.009 L23.794,30.009 ZM3.601,7.221 C1.603,7.221 -0.008,5.602 -0.008,3.608 C-0.008,1.616 1.603,-0.003 3.601,-0.003 C5.592,-0.003 7.207,1.616 7.207,3.608 C7.207,5.602 5.592,7.221 3.601,7.221 ZM6.713,30.009 L0.486,30.009 L0.486,9.962 L6.713,9.962 L6.713,30.009 Z"/>
</svg>