<svg
        xmlns="http://www.w3.org/2000/svg"
        xmlns:xlink="http://www.w3.org/1999/xlink"
        width="29px" height="24px">
    <path fill-rule="evenodd"  fill="rgb(0, 86, 150)"
          d="M29.000,2.840 C27.933,3.322 26.786,3.648 25.583,3.794 C26.811,3.044 27.755,1.857 28.199,0.442 C27.049,1.136 25.776,1.641 24.421,1.912 C23.335,0.735 21.789,-0.001 20.078,-0.001 C16.792,-0.001 14.128,2.712 14.128,6.058 C14.128,6.533 14.181,6.995 14.282,7.439 C9.337,7.186 4.953,4.774 2.019,1.108 C1.506,2.003 1.213,3.044 1.213,4.154 C1.213,6.256 2.264,8.111 3.860,9.197 C2.885,9.166 1.967,8.893 1.165,8.439 C1.165,8.465 1.165,8.490 1.165,8.515 C1.165,11.451 3.215,13.900 5.937,14.457 C5.438,14.595 4.912,14.669 4.370,14.669 C3.986,14.669 3.614,14.631 3.250,14.560 C4.007,16.968 6.205,18.719 8.808,18.768 C6.772,20.393 4.207,21.362 1.419,21.362 C0.939,21.362 0.465,21.333 -0.000,21.277 C2.633,22.996 5.760,23.999 9.120,23.999 C20.064,23.999 26.048,14.767 26.048,6.760 C26.048,6.498 26.043,6.236 26.031,5.977 C27.194,5.122 28.202,4.055 29.000,2.840 Z"/>
</svg>