<svg
        xmlns="http://www.w3.org/2000/svg"
        xmlns:xlink="http://www.w3.org/1999/xlink"
        width="18px" height="18px">
    <path fill-rule="evenodd"  fill="rgb(123, 123, 123)"
          d="M15.612,15.627 C14.614,16.639 13.258,17.195 11.826,17.195 C10.393,17.195 9.063,16.639 8.040,15.627 L6.786,14.387 C6.275,13.881 6.275,13.096 6.786,12.590 C7.298,12.085 8.091,12.085 8.603,12.590 L9.882,13.830 C10.419,14.361 11.110,14.640 11.877,14.640 C12.645,14.640 13.335,14.361 13.872,13.830 C14.410,13.299 14.691,12.615 14.691,11.856 C14.691,11.098 14.410,10.414 13.872,9.883 L12.619,8.644 C12.107,8.137 12.107,7.353 12.619,6.847 C13.131,6.341 13.924,6.341 14.435,6.847 L15.612,8.137 C16.635,9.124 17.198,10.465 17.198,11.882 C17.198,13.299 16.635,14.614 15.612,15.627 ZM10.624,11.882 C10.317,11.882 9.984,11.755 9.728,11.503 L6.479,8.289 C5.968,7.783 5.968,6.999 6.479,6.492 C6.991,5.987 7.784,5.987 8.296,6.492 L11.519,9.706 C12.031,10.212 12.031,10.996 11.519,11.503 C11.289,11.755 10.931,11.882 10.624,11.882 ZM9.396,5.430 L8.117,4.165 C7.580,3.633 6.889,3.355 6.121,3.355 C5.354,3.355 4.663,3.633 4.126,4.165 C3.589,4.696 3.307,5.379 3.307,6.138 C3.307,6.897 3.589,7.581 4.126,8.112 L5.431,9.327 C5.942,9.832 5.942,10.617 5.431,11.123 C5.200,11.376 4.868,11.503 4.535,11.503 C4.228,11.503 3.896,11.376 3.640,11.123 L2.387,9.857 C1.363,8.871 0.800,7.530 0.800,6.113 C0.800,4.696 1.363,3.381 2.387,2.369 C3.384,1.357 4.740,0.800 6.173,0.800 C7.605,0.800 8.935,1.357 9.959,2.369 L11.212,3.633 C11.724,4.140 11.724,4.924 11.212,5.430 C10.700,5.936 9.907,5.936 9.396,5.430 Z"/>
</svg>