<svg
        xmlns="http://www.w3.org/2000/svg"
        xmlns:xlink="http://www.w3.org/1999/xlink"
        width="15px" height="12px">
    <path fill-rule="evenodd"  fill="rgb(123, 123, 123)"
          d="M12.131,11.999 L2.870,11.999 C1.290,11.999 -0.002,10.670 -0.002,9.046 L-0.002,2.953 C-0.002,2.418 0.142,1.919 0.375,1.495 C0.411,1.532 0.447,1.587 0.501,1.624 L6.316,6.609 C6.657,6.922 7.069,7.070 7.500,7.070 C7.931,7.070 8.344,6.904 8.685,6.609 L14.500,1.624 C14.553,1.587 14.589,1.550 14.625,1.495 C14.859,1.919 15.002,2.418 15.002,2.953 L15.002,9.046 C15.002,10.670 13.710,11.999 12.131,11.999 ZM7.751,5.482 L7.733,5.501 C7.608,5.630 7.410,5.630 7.267,5.501 L7.249,5.482 L1.416,0.498 C1.398,0.479 1.362,0.461 1.344,0.461 C1.793,0.166 2.313,-0.001 2.870,-0.001 L12.113,-0.001 C12.669,-0.001 13.189,0.184 13.638,0.461 C13.620,0.479 13.602,0.479 13.584,0.498 L7.751,5.482 Z"/>
</svg>