<svg
        xmlns="http://www.w3.org/2000/svg"
        xmlns:xlink="http://www.w3.org/1999/xlink"
        width="14px" height="14px">
    <path fill-rule="evenodd"  fill="rgb(123, 123, 123)"
          d="M12.863,13.674 C11.028,13.881 9.044,13.999 7.002,13.999 C4.945,13.999 2.977,13.896 1.141,13.689 C0.416,13.600 -0.102,12.936 0.017,12.214 C0.431,9.824 1.867,7.817 3.835,6.770 C4.678,7.537 5.789,7.995 7.002,7.995 C8.231,7.995 9.340,7.537 10.169,6.770 C12.138,7.817 13.573,9.824 13.988,12.214 C14.106,12.936 13.588,13.615 12.863,13.674 ZM7.002,6.637 C5.163,6.637 3.672,5.151 3.672,3.318 C3.672,1.485 5.163,-0.001 7.002,-0.001 C8.841,-0.001 10.332,1.485 10.332,3.318 C10.332,5.151 8.841,6.637 7.002,6.637 Z"/>
</svg>